<?xml version="1.0" encoding="utf-8"?>
<!-- Generator: Adobe Illustrator 21.1.0, SVG Export Plug-In . SVG Version: 6.00 Build 0)  -->
<svg version="1.1" id="Layer_1" xmlns="http://www.w3.org/2000/svg" xmlns:xlink="http://www.w3.org/1999/xlink" x="0px" y="0px"
	 viewBox="0 0 176 130" style="enable-background:new 0 0 176 130;" xml:space="preserve">
<g>
	<path d="M167.9,25H8.1C3.6,25,0,20.5,0,15S3.6,5,8.1,5h159.7c4.5,0,8.1,4.5,8.1,10S172.4,25,167.9,25z"/>
</g>
<g>
	<path d="M167.9,75H8.1C3.6,75,0,70.5,0,65s3.6-10,8.1-10h159.7c4.5,0,8.1,4.5,8.1,10S172.4,75,167.9,75z"/>
</g>
<g>
	<path d="M167.9,125H8.1c-4.5,0-8.1-4.5-8.1-10s3.6-10,8.1-10h159.7c4.5,0,8.1,4.5,8.1,10S172.4,125,167.9,125z"/>
</g>
</svg>
