<?xml version="1.0" encoding="utf-8"?>
<!-- Generator: Adobe Illustrator 21.1.0, SVG Export Plug-In . SVG Version: 6.00 Build 0)  -->
<svg version="1.1" id="Layer_1" xmlns="http://www.w3.org/2000/svg" xmlns:xlink="http://www.w3.org/1999/xlink" x="0px" y="0px"
	 viewBox="0 0 176 130" style="enable-background:new 0 0 176 130;" xml:space="preserve">
<g>
	<path d="M159.7,127.8L4.9,18.6C0.6,15.5-0.3,9.3,2.8,4.9s9.3-5.7,13.6-2.6l154.6,109.2c4.4,3.1,5.2,9.2,2.1,13.7
		C170,129.6,164,130.9,159.7,127.8z"/>
</g>
<g>
	<path d="M2.8,125.1c-3.2-4.5-2.3-10.6,2.1-13.7L159.6,2.2c4.4-3.1,10.4-1.9,13.6,2.6c3.2,4.5,2.3,10.6-2.1,13.7L16.3,127.8
		C12,130.9,6,129.6,2.8,125.1z"/>
</g>
</svg>
